<?xml version="1.0" encoding="UTF-8"?>
<svg id="Layer_2" data-name="Layer 2" xmlns="http://www.w3.org/2000/svg" viewBox="0 0 149.36 127.49">
  <defs>
    <style>
      .cls-1, .cls-2 {
        fill: #f9313b;
      }

      .cls-1, .cls-2, .cls-3 {
        stroke-width: 0px;
      }

      .cls-1, .cls-3 {
        fill-rule: evenodd;
      }

      .cls-3 {
        fill: #134b94;
      }
    </style>
  </defs>
  <g id="Layer_1-2" data-name="Layer 1">
    <g>
      <path class="cls-3" d="m31.64,0C11.48,13.02-.49,35.57.02,59.57c.51,24,13.43,46.02,34.13,58.17,3.77,2.2,7.69,4.02,11.7,5.47-1.94-.96-3.85-2.01-5.73-3.15l-.11-.07-.11-.08c-1.38-.99-2.2-2.58-2.2-4.28,0-.46.06-.91.17-1.34-3.98-2.29-7.74-5-11.2-8.1l-.5-.45-.3-.6c-.81-1.61-.8-3.48.28-4.98,1.14-1.58,3.01-2.17,4.81-1.93.59-1.45,1.66-2.68,3.06-3.46,1.76-.98,3.85-1.16,5.75-.48,2.48.8,4.96,1.59,7.44,2.39,3.06.83,6.15,1.55,9.27,2.14-.56-1.15-.92-2.42-1.03-3.76l-.31-3.71,3.72-.09c.37,0,.74-.02,1.1-.03-1.59-.19-3.22-.37-4.89-.52-10.39-1.56-20.99-.73-31.01,2.44,0,0,3.61-1.99,10.83-5.96-13.39-10.27-21.5-25.98-22.13-42.84C12.14,27.51,19.06,11.24,31.64,0Z"/>
      <path class="cls-2" d="m149.36,57.99c0-.27,0-.53,0-.8,0-.16,0-.31,0-.47,0-.24,0-.48-.02-.72,0-.16-.01-.33-.02-.49,0-.23-.02-.46-.03-.69,0-.17-.02-.33-.03-.5-.01-.23-.03-.46-.04-.69-.01-.17-.02-.33-.03-.5-.02-.23-.03-.47-.05-.7-.01-.16-.03-.32-.04-.48-.02-.25-.05-.49-.07-.74-.01-.14-.03-.29-.04-.43-.03-.29-.06-.57-.1-.86-.01-.09-.02-.17-.03-.26,0,0,0,.01,0,.02-2.47-20.2-13.76-38.48-31.13-49.7,12.59,11.24,19.51,27.51,18.88,44.37-.63,16.86-8.74,32.57-22.13,42.84,3.76,2.07,6.54,3.6,8.34,4.59.46.25.85.47,1.18.65.71.39,1.13.62,1.26.69.01,0,.02.01.03.01.01,0,.02.01.02.01-.3-.09-.6-.19-.9-.28-.11-.03-.22-.07-.34-.1-.19-.06-.38-.11-.57-.17-.12-.04-.25-.07-.37-.1-.18-.05-.36-.1-.54-.15-.13-.03-.25-.07-.38-.1-.12-.03-.25-.07-.37-.1,0,0,0,0,0,0-8.98-2.33-18.34-2.82-27.54-1.44-1.33.12-2.63.25-3.91.4,0,0,0,0,0,0-.13.02-.27.03-.4.05-.14.02-.27.03-.41.05-.23.03-.46.06-.69.09-.12.02-.24.03-.36.05-.26.03-.53.07-.79.1-.09.01-.17.02-.26.03-.7.09-1.4.19-2.09.29-.1.01-.2.03-.3.04-.25.03-.49.07-.74.11-.12.02-.24.03-.36.05-.23.03-.45.07-.68.1-.12.02-.25.04-.37.05-.23.03-.45.07-.68.1-.12.02-.23.04-.35.05-.24.04-.48.07-.72.11-.1.01-.2.03-.29.04-.69.1-1.37.21-2.06.31-.16.02-.33.05-.49.07-.17.03-.34.05-.51.08-.32.05-.65.1-.98.15-.12.02-.25.04-.37.05-.21.03-.43.06-.64.09-.14.02-.28.04-.42.06-.2.03-.4.06-.59.09-.15.02-.29.04-.44.06-.19.03-.38.05-.57.08-.15.02-.3.04-.45.06-.19.03-.39.05-.58.08-.15.02-.3.04-.45.06-.2.03-.39.05-.59.08-.15.02-.29.04-.44.06-.21.03-.42.05-.62.08-.14.02-.27.03-.41.05-.24.03-.48.06-.72.08-.11.01-.21.02-.32.04-.35.04-.69.08-1.04.11-.08,0-.16.02-.24.02-.27.03-.54.06-.82.08-.13.01-.26.02-.39.04-.23.02-.45.04-.68.06-.14.01-.29.02-.43.04-.21.02-.43.04-.64.05-.15.01-.3.02-.46.04-.21.02-.42.03-.64.05-.15.01-.31.02-.46.03-.22.01-.43.03-.65.04-.15,0-.31.02-.46.03-.22.01-.45.02-.68.04-.15,0-.3.02-.44.02-.25.01-.5.02-.75.03-.13,0-.25.01-.38.02-.38.01-.76.03-1.15.04.3,3.56,3.2,6.35,6.77,6.5,7.47,1.5,16.32-.04,27.49,2.57-15.76,1.66-31.7.38-46.99-3.79-5.06-1.62-7.58-2.44-7.58-2.44-.95-.35-2.01-.27-2.9.22-.89.5-1.51,1.35-1.71,2.35,9.86,6.08,20.8,10.17,32.23,12.05,5.5.48,4.94,3.39.14,2.44-12.33-1.57-24.16-5.82-34.67-12.46-1.39-1.11-3.59-.41-2.71,1.35,10.16,9.09,22.99,14.64,36.56,15.84,1.09.13,1.07,1.35-.41,1.35-8.15-.34-16.1-2.59-23.22-6.57-.46.33-.73.86-.73,1.42s.27,1.09.73,1.42c22.45,13.65,50.57,13.91,73.26.68,20.7-12.15,33.62-34.17,34.13-58.17,0-.4.01-.79.01-1.19,0-.13,0-.26,0-.39Z"/>
      <path class="cls-3" d="m70.14,89.21c1.07-9.64,1.81-19.72,2.02-29.36.62-28.61-5.12-30.2-8.01-34.44l-1.12-1.31.31-.16c-.04-.09-.07-.18-.11-.27C77.49,14.93,69.13-.68,54.87.61c-11.27,1.02-20.66,12.22-23.3,22.49-7.17,27.9,16.46,44.21,25.86,35.81,5.09-4.55,3.23-11.04,2.23-17.89,4.29,1.78,5.5,31.81,6.66,48.88,1.27-.19,2.54-.42,3.81-.68Z"/>
      <path class="cls-1" d="m78.11,87.08c-.95-8.98-1.6-18.3-1.79-27.23-.66-30.24,5.79-30.3,8.47-35.2.17-.33.32-.63.45-.98-14.25-8.74-5.9-24.34,8.37-23.06,11.27,1.02,20.66,12.22,23.3,22.49,7.17,27.9-16.46,44.21-25.86,35.81-5.09-4.55-3.23-11.04-2.23-17.89-3.94,1.64-5.28,27.15-6.38,44.51-1.43.55-2.87,1.07-4.33,1.55Z"/>
    </g>
  </g>
</svg>