<svg id="Layer_1" data-name="Layer 1" xmlns="http://www.w3.org/2000/svg" viewBox="0 0 1345 1329"><defs><style>.cls-1{fill:#007991;}.cls-2{fill:#a69b74;}.cls-3{fill:#c7b299;}</style></defs><path class="cls-1" d="M734.34,409.45a307.89,307.89,0,0,1-130.23-.78,479,479,0,0,0,40.57-76.11A476.08,476.08,0,0,0,669,259.2a481,481,0,0,0,65.39,150.25Z"/><path class="cls-1" d="M460.38,532.63a463.36,463.36,0,0,1-258.94,78.73q-19.47,0-38.56-1.58a63.22,63.22,0,0,0-25.81-36.1,540.16,540.16,0,0,1,30.86-95.77,70.54,70.54,0,0,0,84.94-49.32A544.57,544.57,0,0,1,460.38,532.63Z"/><path class="cls-1" d="M579.29,417.84A470,470,0,0,1,473.43,523.55a560.52,560.52,0,0,0-218-109.93c.08-1.36.12-2.74.12-4.12a70.27,70.27,0,0,0-19.31-48.43,549.55,549.55,0,0,1,79.27-83.78,78.22,78.22,0,0,0,86.12,8.48,325.06,325.06,0,0,0,41.55,50.87A320.56,320.56,0,0,0,579.29,417.84Z"/><path class="cls-1" d="M661.33,221.09a463.35,463.35,0,0,1-72.9,183.65A308.47,308.47,0,0,1,414.25,277.36a78.36,78.36,0,0,0,26.5-80.68,542.82,542.82,0,0,1,145.58-44.16A89.75,89.75,0,0,0,660,212.33C660.43,215.26,660.87,218.17,661.33,221.09Z"/><path class="cls-1" d="M927.75,277.36A308.4,308.4,0,0,1,750.14,405.67a463.41,463.41,0,0,1-73.57-184.58q.66-4.17,1.25-8.35a89.71,89.71,0,0,0,77.85-60.21,542.44,542.44,0,0,1,145.58,44.15h0a78.34,78.34,0,0,0,26.5,80.67Z"/><path class="cls-1" d="M1086.5,409.5c0,1.37,0,2.74.12,4.09A560.18,560.18,0,0,0,866.68,525.07,470.33,470.33,0,0,1,759.36,418.81a320.55,320.55,0,0,0,139.51-82.17,325.06,325.06,0,0,0,41.55-50.87,78.24,78.24,0,0,0,86.12-8.47,549.94,549.94,0,0,1,79.27,83.77A70.27,70.27,0,0,0,1086.5,409.5Z"/><path class="cls-1" d="M1205.08,574.27a63.17,63.17,0,0,0-24.81,35q-21.64,2-43.82,2A463.38,463.38,0,0,1,879.8,534.07a544.65,544.65,0,0,1,209.32-105.52,70.54,70.54,0,0,0,85,49.36A541.82,541.82,0,0,1,1205.08,574.27Z"/><path class="cls-2" d="M796.29,485.38a485,485,0,0,1-52.78-62.51A326.08,326.08,0,0,1,595,422.05,486.66,486.66,0,0,1,485.43,533.67q15.13,13.14,29.42,27.42A559.35,559.35,0,0,1,635.12,739.47,555.91,555.91,0,0,1,669.27,852l-2.38-240.22a19.63,19.63,0,1,1,8.22,0L672.73,852a559.66,559.66,0,0,1,154.42-291q13.41-13.42,27.59-25.81A484.33,484.33,0,0,1,796.29,485.38Z"/><circle class="cls-1" cx="671" cy="123.5" r="76.5"/><circle class="cls-1" cx="977.1" cy="216.5" r="65.4"/><circle class="cls-1" cx="364.9" cy="216.5" r="65.4"/><circle class="cls-1" cx="1157" cy="409.5" r="57.5"/><circle class="cls-1" cx="185" cy="409.5" r="57.5"/><circle class="cls-1" cx="1241" cy="626" r="50"/><circle class="cls-1" cx="102" cy="626" r="50"/><circle class="cls-1" cx="1241" cy="806" r="42.5"/><circle class="cls-1" cx="102" cy="806" r="42.5"/><circle class="cls-1" cx="1162.99" cy="958" r="35.01"/><circle class="cls-1" cx="179.01" cy="958" r="35.01"/><path class="cls-2" d="M408.37,1110.49q0,9.54-4.14,15.43t-13.17,5.89q-14,0-24.2-4a35.05,35.05,0,0,1-16.17-12.54,72,72,0,0,1-23.33,4q-13.55,0-23.7-4t-15.54-11.41a28,28,0,0,1-5.4-16.93q0-10.53,6.9-21.19t20.56-20.06A128,128,0,0,1,342.91,1030v-11.53L372,1007.17l2.26.75v75.24q0,6.77,2,10.41t7.14,5.26q5.14,1.64,14.67,1.63Q408.37,1100.46,408.37,1110.49ZM373,966,357,990.12l-24.58-17.31-11,17.31-25.83-18.06,16.05-23.57,24.33,16.8,11.28-16.8Zm-30.1,121.88v-28.59a100.23,100.23,0,0,0-23.32,8.41q-9.73,5.13-12,10.9,1.8,4.77,8.58,7.53a37.45,37.45,0,0,0,14.23,2.76A66.48,66.48,0,0,0,342.91,1087.92Z"/><path class="cls-3" d="M472.31,968.93a45.44,45.44,0,0,1,1,9.65q0,11.53-6.15,18.81t-17.68,7.27a22.08,22.08,0,0,1-8.65-1.63,15.46,15.46,0,0,1-6.15-4.38,16.9,16.9,0,0,1-7.14,4.89,27,27,0,0,1-9.41,1.63q-12.28,0-17.68-6.27t-5.39-16a54.47,54.47,0,0,1,.63-7,49,49,0,0,1,1.63-7.77l17.05-.5a57.42,57.42,0,0,0-1,10.78q0,4.51,1.5,6.65a5.18,5.18,0,0,0,4.52,2.13,5,5,0,0,0,3.88-1.51q1.38-1.5,2.14-5.51a65.12,65.12,0,0,0,.75-11.29l16.3-1c-.17,3.35-.25,6.77-.25,10.28q0,8.28,6.52,8.28c2.34,0,3.93-.76,4.76-2.26a14.26,14.26,0,0,0,1.26-6.77,37.32,37.32,0,0,0-.76-7.15c-.5-2.59-1.08-5-1.75-7.4l17.3-3.76A95.52,95.52,0,0,1,472.31,968.93Z"/><path class="cls-2" d="M468.55,1167.67l-16.05,24.08-24.33-17.31-11.53,17.31-25.58-18.06,15.8-23.57,24.83,17.05L443,1150.12Zm-70.17-67.21H406q7.83,0,14.76-.5t9.47-1.5a10,10,0,0,0,.25-2.76q0-6.78-3.89-16.8t-10.4-23.33l25-20.06h2.48a176.87,176.87,0,0,1,9.94,27.84q4,14.79,4,23.57a51.6,51.6,0,0,1-3.26,18.56,41.24,41.24,0,0,1-10,15,36.48,36.48,0,0,1-16.18,8.65q-9.92,2.63-28.46,2.63h-8Z"/><path class="cls-3" d="M470.3,1233.37v-18.55l59.94-11.54v18.81Z"/><path class="cls-2" d="M473.81,1151.62l1.66-2.76a161.13,161.13,0,0,0,26.09-10.53q11.62-6,18.14-11.91t6.53-9.91q-.42-6.26-4.92-18.68t-10.13-24.45l22.57-25.33h2.51a146.25,146.25,0,0,1,12.54,31.35q4.51,16.55,4.51,28.84a61.9,61.9,0,0,1-2.51,17.55,53,53,0,0,1-6.52,14.55q-7,10.53-21.19,19.68t-33.73,14.42Z"/><path class="cls-2" d="M594.19,1119.52q-12.29-12.29-12.29-38.87V965.79L610.74,958l2.51,1.5v118.87q0,8.53,2.51,13.3a14.16,14.16,0,0,0,7.77,6.77q5.26,2,14.8,2,5.26,0,7.65,2.51c1.58,1.67,2.38,4.18,2.38,7.52q0,10-4,15.68t-12.79,5.64Q606.48,1131.81,594.19,1119.52Z"/><path class="cls-3" d="M726.35,924.29a46.11,46.11,0,0,1,1,9.65q0,11.53-6.14,18.81T703.53,960a22,22,0,0,1-8.65-1.63,15.41,15.41,0,0,1-6.15-4.39,16.7,16.7,0,0,1-7.15,4.89,26.69,26.69,0,0,1-9.4,1.63q-12.28,0-17.68-6.27t-5.39-16a54,54,0,0,1,.62-7,50.18,50.18,0,0,1,1.63-7.77l17.06-.5a57.34,57.34,0,0,0-1,10.78c0,3,.51,5.23,1.51,6.64a5.14,5.14,0,0,0,4.51,2.14,5,5,0,0,0,3.89-1.51q1.38-1.5,2.13-5.51a65.2,65.2,0,0,0,.75-11.29l16.3-1c-.16,3.34-.25,6.77-.25,10.28q0,8.28,6.52,8.27,3.51,0,4.77-2.25a14.42,14.42,0,0,0,1.25-6.77,38,38,0,0,0-.75-7.15c-.5-2.59-1.09-5.06-1.75-7.4l17.3-3.76A94.84,94.84,0,0,1,726.35,924.29Z"/><path class="cls-2" d="M730,1103.22a10.77,10.77,0,0,1,2.38,7.27q0,9.78-3.89,15.55t-12.91,5.77a72.93,72.93,0,0,1-21-3.26,56.6,56.6,0,0,1-18.18-8.78q-14.79,12-40.12,12h-4.77l6.77-31.35h4.52q15,0,19.81-3.26,4-9.78,8.53-35.11l32.35-7.52,2.51,1.75q-3,13-5.77,22.45A120.28,120.28,0,0,1,694,1095.7q12,4.77,28.34,4.76C725.85,1100.46,728.39,1101.38,730,1103.22Zm-39.5-69.72-26.84-19.06,16.81-24.57L707,1008.42Z"/><path class="cls-3" d="M803.34,1188.49v-18.56l59.93-11.54v18.81Z"/><path class="cls-2" d="M942.15,1103.22a10.77,10.77,0,0,1,2.38,7.27q0,9.78-3.89,15.55t-12.91,5.77a74.72,74.72,0,0,1-19.94-2.88,58.41,58.41,0,0,1-17.68-7.9q-12.54,10.79-32.1,10.78h-.5a82.34,82.34,0,0,1-17.93-1.76,72.39,72.39,0,0,1-14.93-5q-9.27,6.76-23.82,6.77a71.41,71.41,0,0,1-21.19-3.13,69.79,69.79,0,0,1-17.18-7.65,47.21,47.21,0,0,1-18.56,8.27q-11,2.52-28.34,2.51l6.77-31.35a159.81,159.81,0,0,0,17.94-.75,36.2,36.2,0,0,0,9.65-2.26,57.48,57.48,0,0,0,3.14-11.28q1.62-8,2.88-16.8l33.86-5.27,1,1q-7.78,22.58-11.29,31.35a88.73,88.73,0,0,0,12.29,2.88,77.21,77.21,0,0,0,12.79,1.13q6,0,9-2.25,1.75-2.26,5-17.81l2.75-11,31.6-5.27,1,1q-6.27,21.57-11,32.86a72,72,0,0,0,19.08,2.5c5.94,0,10.77-.91,14.5-2.76q1.53-4.26,1.53-13.29a136.66,136.66,0,0,0-2-23.82L907,1049.05l1.73.75q.74,9,.74,16.56,0,17.06-3.76,29.34a61.64,61.64,0,0,0,12.91,3.51,95,95,0,0,0,15.93,1.25Q939.77,1100.46,942.15,1103.22Z"/><path class="cls-2" d="M934.5,1100.46q13.54,0,20.06-3.26,1.76-7,1.76-18.56V965.79L985.41,958l2.25,1.5v117.62q0,21.31-7,33.23a37.65,37.65,0,0,1-19.94,16.68q-12.91,4.76-33,4.76Z"/><path class="cls-2" d="M1019.79,1133.57l-2-1.51V965.79l29.57-7.77,2.53,1.5-.75,168Z"/></svg>